<svg width="28" height="32" viewBox="0 0 28 32" fill="none" xmlns="http://www.w3.org/2000/svg">
<path d="M15.1482 1C8.45151 1 3 6.85493 3 14.0523C3 21.2497 8.45151 27.1046 15.1482 27.1046C16.401 27.1028 17.6478 26.8896 18.8533 26.4707L23.052 29.7524C23.1666 29.8427 23.299 29.8934 23.435 29.8994C23.5712 29.9053 23.706 29.8662 23.8256 29.7861C23.9452 29.7061 24.045 29.588 24.1146 29.4443C24.1842 29.3005 24.221 29.1365 24.2213 28.9692V22.6948C25.1713 21.5757 25.9294 20.2346 26.451 18.7503C26.9726 17.2661 27.247 15.6688 27.2583 14.0523C27.2963 6.85493 21.8448 1 15.1482 1ZM22.9609 21.6134C22.8846 21.7003 22.8236 21.8056 22.7818 21.9226C22.74 22.0397 22.7183 22.1661 22.718 22.2939V27.2724L19.3924 24.6713C19.2996 24.5993 19.1952 24.5528 19.0865 24.5351C18.9777 24.5175 18.867 24.5289 18.7622 24.5687C17.592 25.015 16.3735 25.2414 15.1482 25.24C9.28664 25.24 4.51852 20.2242 4.51852 14.0523C4.51852 7.88041 9.28664 2.86462 15.1482 2.86462C21.0096 2.86462 25.7778 7.88041 25.7778 14.0523C25.7604 15.4835 25.5012 16.8946 25.0162 18.1962C24.5313 19.4978 23.8314 20.6614 22.9609 21.6134Z" fill="#808080"/>
<path d="M20.3146 13.8307H9.68505C9.48365 13.8307 9.29052 13.9221 9.14812 14.0848C9.00578 14.2475 8.92578 14.4683 8.92578 14.6984C8.92578 14.9285 9.00578 15.1492 9.14812 15.312C9.29052 15.4747 9.48365 15.5661 9.68505 15.5661H20.3146C20.516 15.5661 20.7091 15.4747 20.8515 15.312C20.9939 15.1492 21.0739 14.9285 21.0739 14.6984C21.0739 14.4683 20.9939 14.2475 20.8515 14.0848C20.7091 13.9221 20.516 13.8307 20.3146 13.8307Z" fill="#808080"/>
<path d="M17.8468 18.1693H12.1523C11.951 18.1693 11.7579 18.2607 11.6155 18.4235C11.4731 18.5862 11.3931 18.8069 11.3931 19.037C11.3931 19.2672 11.4731 19.4879 11.6155 19.6506C11.7579 19.8134 11.951 19.9048 12.1523 19.9048H17.8468C18.0482 19.9048 18.2413 19.8134 18.3837 19.6506C18.5261 19.4879 18.6061 19.2672 18.6061 19.037C18.6061 18.8069 18.5261 18.5862 18.3837 18.4235C18.2413 18.2607 18.0482 18.1693 17.8468 18.1693Z" fill="#808080"/>
<path d="M9.89794 11.2275H20.1024C20.3037 11.2275 20.4969 11.1361 20.6393 10.9734C20.7817 10.8107 20.8617 10.59 20.8617 10.3598C20.8617 10.1297 20.7817 9.90898 20.6393 9.74624C20.4969 9.58349 20.3037 9.49207 20.1024 9.49207H9.89794C9.69654 9.49207 9.50347 9.58349 9.36107 9.74624C9.21867 9.90898 9.13867 10.1297 9.13867 10.3598C9.13867 10.59 9.21867 10.8107 9.36107 10.9734C9.50347 11.1361 9.69654 11.2275 9.89794 11.2275Z" fill="#808080"/>
</svg>
