<svg width="141" height="36" viewBox="0 0 141 36" fill="none" xmlns="http://www.w3.org/2000/svg">
<path d="M13.1401 1.3125L10.5083 33.8994L0.411621 34.4258V1.98242L13.1401 1.3125ZM44.5068 22.8936C44.5068 24.696 44.4829 26.4824 44.4351 28.2529C44.4032 30.0075 44.3473 31.778 44.2676 33.5645L30.4863 33.3252C30.9648 30.502 31.3796 27.6867 31.7305 24.8794C32.0814 22.0562 32.2568 19.209 32.2568 16.3379C32.2568 16.1305 32.2489 15.7956 32.2329 15.333C32.217 14.8704 32.1851 14.3521 32.1372 13.7778C32.0894 13.1877 32.0176 12.5895 31.9219 11.9834C31.8421 11.3613 31.7225 10.7951 31.563 10.2847C31.4194 9.77425 31.236 9.35954 31.0127 9.04053C30.8053 8.70557 30.5501 8.53809 30.2471 8.53809C29.7048 8.53809 29.2422 8.69759 28.8594 9.0166C28.4925 9.33561 28.1815 9.75033 27.9263 10.2607C27.687 10.7552 27.4956 11.3135 27.3521 11.9355C27.2085 12.5576 27.0968 13.1797 27.0171 13.8018C26.9533 14.4238 26.9054 15.014 26.8735 15.5723C26.8576 16.1146 26.8496 16.5612 26.8496 16.9121C26.7699 19.7354 26.7061 22.5426 26.6582 25.334C26.6104 28.1094 26.5465 30.9167 26.4668 33.7559L14.2646 34.2822C14.5837 28.6517 14.8867 23.0531 15.1738 17.4863C15.4769 11.9196 15.7161 6.32096 15.8916 0.69043L27.1846 0.116211L27.0889 3.94434C27.5355 3.40202 28.014 2.8916 28.5244 2.41309C29.0508 1.93457 29.609 1.52783 30.1992 1.19287C30.7894 0.84196 31.4115 0.570801 32.0654 0.379395C32.7354 0.172038 33.4372 0.0683594 34.1709 0.0683594C35.5267 0.0683594 36.715 0.291667 37.7358 0.738281C38.7567 1.1849 39.634 1.79102 40.3677 2.55664C41.1014 3.32227 41.7155 4.23145 42.21 5.28418C42.7044 6.32096 43.1032 7.42952 43.4062 8.60986C43.7093 9.7902 43.9406 11.0264 44.1001 12.3184C44.2596 13.5944 44.3633 14.8545 44.4111 16.0986C44.4749 17.3428 44.5068 18.547 44.5068 19.7114C44.5068 20.8758 44.5068 21.9365 44.5068 22.8936Z" fill="#282828"/>
<path d="M71.3037 22.75C71.3037 24.9352 70.9209 26.8254 70.1553 28.4204C69.4056 29.9995 68.3688 31.3075 67.0449 32.3442C65.737 33.3651 64.1978 34.1227 62.4272 34.6172C60.6727 35.0957 58.7826 35.335 56.7568 35.335C55.9753 35.335 55.1139 35.2313 54.1729 35.0239C53.2477 34.8166 52.3066 34.5614 51.3496 34.2583C50.3926 33.9393 49.4674 33.6043 48.5742 33.2534C47.6969 32.8866 46.9154 32.5436 46.2295 32.2246L47.2822 22.8457C48.638 23.6592 50.1374 24.2812 51.7803 24.7119C53.4391 25.1266 55.0661 25.334 56.6611 25.334C56.9642 25.334 57.3311 25.326 57.7617 25.3101C58.1924 25.2782 58.5991 25.2064 58.9819 25.0947C59.3807 24.9671 59.7157 24.7837 59.9868 24.5444C60.258 24.3052 60.3936 23.9622 60.3936 23.5156C60.3936 23.2126 60.2979 22.9574 60.1064 22.75C59.915 22.5267 59.6678 22.3512 59.3647 22.2236C59.0617 22.0801 58.7188 21.9764 58.3359 21.9126C57.9531 21.8328 57.5783 21.777 57.2114 21.7451C56.8446 21.7132 56.5016 21.6973 56.1826 21.6973C55.8636 21.6973 55.6084 21.6973 55.417 21.6973C54.0452 21.6973 52.7931 21.4819 51.6606 21.0513C50.5441 20.6206 49.5791 20.0145 48.7656 19.2329C47.9681 18.4354 47.346 17.4784 46.8994 16.3618C46.4528 15.2293 46.2295 13.9772 46.2295 12.6055C46.2295 10.7233 46.6043 9.04053 47.354 7.55713C48.1196 6.05778 49.1325 4.78971 50.3926 3.75293C51.6686 2.7002 53.1281 1.89469 54.771 1.33643C56.4139 0.778158 58.1126 0.499023 59.8672 0.499023C60.6488 0.499023 61.4543 0.530924 62.2837 0.594727C63.1131 0.642578 63.9346 0.738281 64.748 0.881836C65.5775 1.02539 66.383 1.20882 67.1646 1.43213C67.9461 1.65544 68.6878 1.93457 69.3896 2.26953L68.4805 11.9834C67.3958 11.6165 66.2554 11.3135 65.0591 11.0742C63.8787 10.819 62.7223 10.6914 61.5898 10.6914C61.3825 10.6914 61.1113 10.6994 60.7764 10.7153C60.4574 10.7153 60.1144 10.7393 59.7476 10.7871C59.3966 10.819 59.0378 10.8748 58.6709 10.9546C58.304 11.0343 57.9771 11.146 57.6899 11.2896C57.4028 11.4172 57.1715 11.5926 56.9961 11.8159C56.8206 12.0392 56.7409 12.3024 56.7568 12.6055C56.7728 12.9564 56.9004 13.2275 57.1396 13.4189C57.3949 13.6104 57.7139 13.7539 58.0967 13.8496C58.4954 13.9294 58.9261 13.9692 59.3887 13.9692C59.8672 13.9692 60.3377 13.9613 60.8003 13.9453C61.2629 13.9134 61.6935 13.8895 62.0923 13.8735C62.491 13.8416 62.818 13.8337 63.0732 13.8496C64.3493 13.9294 65.4977 14.2005 66.5186 14.6631C67.5394 15.1257 68.4007 15.7397 69.1025 16.5054C69.8203 17.271 70.3626 18.1882 70.7295 19.2568C71.1123 20.3096 71.3037 21.474 71.3037 22.75ZM85.7788 1.3125L83.147 33.8994L73.0503 34.4258V1.98242L85.7788 1.3125ZM112.791 1.26465L112.552 11.4092L105.422 11.6963L104.561 33.8994L94.4639 34.4258L93.5547 12.2227L86.4248 12.6055L86.7119 1.3125L112.791 1.26465ZM140.377 15.668C140.377 17.0557 140.282 18.4434 140.09 19.8311C137.363 20.0065 134.651 20.2936 131.956 20.6924C129.26 21.0752 126.564 21.458 123.869 21.8408C124.283 22.9893 124.929 23.9064 125.807 24.5923C126.7 25.2782 127.761 25.6211 128.989 25.6211C129.627 25.6211 130.321 25.5015 131.07 25.2622C131.836 25.0229 132.594 24.7279 133.343 24.377C134.093 24.0101 134.811 23.6193 135.497 23.2046C136.182 22.7899 136.773 22.415 137.267 22.0801L136.119 32.9424C135.497 33.4209 134.819 33.8276 134.085 34.1626C133.367 34.4976 132.618 34.7687 131.836 34.9761C131.054 35.1834 130.265 35.335 129.467 35.4307C128.67 35.5264 127.888 35.5742 127.123 35.5742C125.543 35.5742 124.1 35.3589 122.792 34.9282C121.484 34.4976 120.296 33.8994 119.227 33.1338C118.174 32.3522 117.249 31.4351 116.452 30.3823C115.654 29.3296 114.992 28.1812 114.466 26.937C113.939 25.6929 113.541 24.377 113.27 22.9893C112.998 21.6016 112.863 20.1979 112.863 18.7783C112.863 17.2949 112.998 15.8115 113.27 14.3281C113.541 12.8447 113.947 11.4172 114.49 10.0454C115.048 8.67367 115.742 7.4056 116.571 6.24121C117.417 5.06087 118.398 4.03206 119.514 3.15479C120.631 2.27751 121.891 1.59163 123.294 1.09717C124.714 0.602702 126.277 0.355469 127.984 0.355469C129.403 0.355469 130.695 0.55485 131.86 0.953613C133.04 1.33643 134.085 1.87874 134.994 2.58057C135.919 3.26644 136.717 4.08789 137.387 5.04492C138.073 6.00195 138.631 7.05469 139.062 8.20312C139.508 9.33561 139.835 10.5399 140.042 11.8159C140.266 13.076 140.377 14.36 140.377 15.668ZM130.807 14.4238C130.807 13.9772 130.759 13.5226 130.664 13.0601C130.568 12.5815 130.408 12.1509 130.185 11.7681C129.978 11.3853 129.699 11.0742 129.348 10.835C128.997 10.5798 128.558 10.4521 128.032 10.4521C127.394 10.4521 126.827 10.6276 126.333 10.9785C125.854 11.3135 125.44 11.7441 125.089 12.2705C124.738 12.7809 124.451 13.3392 124.228 13.9453C124.004 14.5514 123.837 15.1097 123.725 15.6201L130.807 14.9502V14.4238Z" fill="#EC1F46"/>
</svg>
