<svg width="23" height="20" viewBox="0 0 23 20" fill="none" xmlns="http://www.w3.org/2000/svg">
<path d="M11.3311 20C9.79664 20 8.32862 19.7363 6.92699 19.209C5.52537 18.6816 4.31923 17.972 3.30858 17.0801C2.29793 16.1882 1.49384 15.1237 0.896304 13.8867C0.298768 12.6497 0 11.3542 0 10C0 8.64583 0.298768 7.35026 0.896304 6.11328C1.49384 4.8763 2.29793 3.81185 3.30858 2.91992C4.31923 2.02799 5.52537 1.31836 6.92699 0.791016C8.32862 0.263672 9.79664 0 11.3311 0C12.8655 0 14.3335 0.263672 15.7351 0.791016C17.1368 1.31836 18.3429 2.02799 19.3535 2.91992C20.3642 3.81185 21.1683 4.8763 21.7658 6.11328C22.3633 7.35026 22.6621 8.64583 22.6621 10C22.6621 11.3542 22.3633 12.6497 21.7658 13.8867C21.1683 15.1237 20.3642 16.1882 19.3535 17.0801C18.3429 17.972 17.1368 18.6816 15.7351 19.209C14.3335 19.7363 12.8655 20 11.3311 20ZM16.9966 6.25C16.9966 5.91146 16.8601 5.61849 16.5872 5.37109C16.3142 5.1237 15.9786 5 15.5802 5H7.08191C6.69831 5 6.36634 5.1237 6.08602 5.37109C5.80569 5.61849 5.66553 5.91146 5.66553 6.25V7.5H8.18846C9.04419 6.66667 10.0917 6.25 11.3311 6.25C12.5704 6.25 13.6179 6.66667 14.4737 7.5H16.9966V6.25ZM8.49829 10C8.49829 10.6901 8.77493 11.2793 9.32821 11.7676C9.88148 12.2559 10.5491 12.5 11.3311 12.5C12.113 12.5 12.7806 12.2559 13.3339 11.7676C13.8872 11.2793 14.1638 10.6901 14.1638 10C14.1638 9.3099 13.8872 8.7207 13.3339 8.23242C12.7806 7.74414 12.113 7.5 11.3311 7.5C10.5491 7.5 9.88148 7.74414 9.32821 8.23242C8.77493 8.7207 8.49829 9.3099 8.49829 10ZM16.9966 8.75H15.3146C15.4917 9.17969 15.5802 9.59635 15.5802 10C15.5802 11.0417 15.1671 11.9271 14.3409 12.6562C13.5146 13.3854 12.5114 13.75 11.3311 13.75C10.1507 13.75 9.14747 13.3854 8.32125 12.6562C7.49502 11.9271 7.08191 11.0417 7.08191 10C7.08191 9.59635 7.17044 9.17969 7.34748 8.75H5.66553V13.75C5.66553 14.1016 5.802 14.3978 6.07495 14.6387C6.3479 14.8796 6.68355 15 7.08191 15H15.5802C15.9786 15 16.3142 14.8796 16.5872 14.6387C16.8601 14.3978 16.9966 14.1016 16.9966 13.75V8.75Z" fill="#BDBDBD"/>
</svg>
