<svg width="27" height="31" viewBox="0 0 27 31" fill="none" xmlns="http://www.w3.org/2000/svg">
<path d="M13.5 0.944397C6.03643 0.944397 0 5.73817 0 11.6653C0 18.0519 8.52429 26.8584 12.0343 30.2125C12.8057 30.9476 14.2136 30.9476 14.985 30.2125C18.4757 26.8584 27 18.0519 27 11.6653C27 5.73817 20.9636 0.944397 13.5 0.944397ZM13.5 15.4942C12.2213 15.4942 10.9949 15.0908 10.0907 14.3727C9.18654 13.6547 8.67857 12.6808 8.67857 11.6653C8.67857 10.6498 9.18654 9.67592 10.0907 8.95786C10.9949 8.23981 12.2213 7.83641 13.5 7.83641C14.7787 7.83641 16.0051 8.23981 16.9093 8.95786C17.8135 9.67592 18.3214 10.6498 18.3214 11.6653C18.3214 12.6808 17.8135 13.6547 16.9093 14.3727C16.0051 15.0908 14.7787 15.4942 13.5 15.4942Z" fill="#808080"/>
</svg>
