<svg width="28" height="29" viewBox="0 0 28 29" fill="none" xmlns="http://www.w3.org/2000/svg">
<path d="M26.9015 23.6663C26.1991 22.0384 25.1799 20.5598 23.9005 19.3127C22.625 18.062 21.114 17.0648 19.451 16.3763C19.4361 16.369 19.4212 16.3653 19.4063 16.358C21.726 14.7186 23.234 12.0481 23.234 9.03518C23.234 4.04397 19.101 0 14 0C8.89897 0 4.76602 4.04397 4.76602 9.03518C4.76602 12.0481 6.27399 14.7186 8.59365 16.3617C8.57876 16.369 8.56387 16.3726 8.54897 16.3799C6.8809 17.0685 5.3841 18.0558 4.09953 19.3163C2.82133 20.5644 1.80223 22.0428 1.09849 23.67C0.407141 25.263 0.0342809 26.9709 9.31068e-05 28.7013C-0.000900682 28.7401 0.00606959 28.7788 0.0205934 28.815C0.0351172 28.8512 0.0569006 28.8842 0.08466 28.9121C0.112419 28.9399 0.145593 28.962 0.182227 28.9771C0.21886 28.9922 0.258212 29 0.297963 29H2.53199C2.69582 29 2.82614 28.8725 2.82986 28.7158C2.90433 25.9033 4.05858 23.2692 6.09899 21.2727C8.21014 19.207 11.0139 18.0704 14 18.0704C16.9862 18.0704 19.7899 19.207 21.901 21.2727C23.9414 23.2692 25.0957 25.9033 25.1701 28.7158C25.1739 28.8761 25.3042 29 25.468 29H27.702C27.7418 29 27.7811 28.9922 27.8178 28.9771C27.8544 28.962 27.8876 28.9399 27.9153 28.9121C27.9431 28.8842 27.9649 28.8512 27.9794 28.815C27.9939 28.7788 28.0009 28.7401 27.9999 28.7013C27.9627 26.9598 27.5941 25.2657 26.9015 23.6663ZM14 15.3015C12.291 15.3015 10.6825 14.6494 9.47237 13.4653C8.26227 12.2813 7.59579 10.7074 7.59579 9.03518C7.59579 7.36294 8.26227 5.78907 9.47237 4.60503C10.6825 3.42098 12.291 2.76884 14 2.76884C15.709 2.76884 17.3175 3.42098 18.5276 4.60503C19.7377 5.78907 20.4042 7.36294 20.4042 9.03518C20.4042 10.7074 19.7377 12.2813 18.5276 13.4653C17.3175 14.6494 15.709 15.3015 14 15.3015Z" fill="#808080"/>
</svg>
