<svg width="17" height="17" viewBox="0 0 17 17" fill="none" xmlns="http://www.w3.org/2000/svg">
<path fill-rule="evenodd" clip-rule="evenodd" d="M8.23704 3.32512C5.67503 3.32512 3.59811 5.43927 3.59811 8.0472C3.59811 10.6551 5.67503 12.7693 8.23704 12.7693C10.7991 12.7693 12.876 10.6551 12.876 8.0472C12.876 5.43927 10.7991 3.32512 8.23704 3.32512ZM2.27271 8.0472C2.27271 4.69414 4.94303 1.97595 8.23704 1.97595C11.5311 1.97595 14.2014 4.69414 14.2014 8.0472C14.2014 11.4003 11.5311 14.1185 8.23704 14.1185C4.94303 14.1185 2.27271 11.4003 2.27271 8.0472Z" fill="#A7A3A3"/>
<path fill-rule="evenodd" clip-rule="evenodd" d="M11.5127 11.3816C11.7715 11.1182 12.1911 11.1182 12.4499 11.3816L15.3327 14.316C15.5915 14.5795 15.5915 15.0066 15.3327 15.27C15.0739 15.5335 14.6543 15.5335 14.3955 15.27L11.5127 12.3356C11.2539 12.0722 11.2539 11.645 11.5127 11.3816Z" fill="#A7A3A3"/>
</svg>
