<svg width="23" height="20" viewBox="0 0 23 20" fill="none" xmlns="http://www.w3.org/2000/svg">
<path fill-rule="evenodd" clip-rule="evenodd" d="M19.3583 2.90685C18.3131 1.98267 17.0696 1.24988 15.6997 0.750912C14.3297 0.251943 12.8607 -0.00327912 11.3777 3.18053e-05C5.15912 3.18053e-05 0.0967729 4.44583 0.0942592 9.91059C0.0942592 11.6571 0.613313 13.3616 1.59989 14.8654L0 20L5.98107 18.6211C7.63548 19.4123 9.48901 19.827 11.3727 19.8277H11.3777C17.595 19.8277 22.6574 15.382 22.66 9.91721C22.6642 8.61504 22.3746 7.32503 21.8079 6.12175C21.2412 4.91847 20.4087 3.82579 19.3583 2.90685ZM11.3777 18.1553H11.3739C9.69427 18.1554 8.0455 17.7584 6.60066 17.006L6.25881 16.8271L2.70963 17.6451L3.656 14.6059L3.43355 14.2945C2.49446 12.9813 1.99733 11.4615 1.99956 9.91059C2.00206 5.36876 6.20854 1.67369 11.3815 1.67369C12.6135 1.67129 13.8337 1.88354 14.9717 2.29816C16.1097 2.71279 17.1427 3.32156 18.011 4.08922C18.8841 4.85324 19.5759 5.76166 20.0468 6.762C20.5179 7.76232 20.7584 8.83474 20.7547 9.91721C20.7521 14.459 16.5456 18.1553 11.3777 18.1553ZM16.5218 11.985C16.239 11.8603 14.854 11.2619 14.5951 11.1791C14.3375 11.0963 14.1502 11.0554 13.9617 11.3027C13.7732 11.55 13.2327 12.1075 13.0681 12.2731C12.9035 12.4387 12.7388 12.4586 12.4573 12.335C12.1758 12.2113 11.2671 11.9497 10.19 11.1062C9.35176 10.4493 8.78621 9.63901 8.62157 9.39061C8.45693 9.14221 8.60398 9.00863 8.74599 8.88499C8.87293 8.77459 9.02751 8.59574 9.16827 8.45111C9.30903 8.30649 9.35554 8.20381 9.4498 8.03821C9.54406 7.87261 9.49755 7.728 9.42592 7.60435C9.35554 7.4796 8.79124 6.26079 8.55621 5.76509C8.32874 5.28485 8.09623 5.34889 7.9228 5.34226C7.74318 5.33581 7.56341 5.33286 7.38363 5.33342C7.24068 5.33662 7.10003 5.36574 6.97049 5.41894C6.84094 5.47212 6.7253 5.54825 6.63081 5.64255C6.37192 5.89095 5.64424 6.48931 5.64424 7.70813C5.64424 8.92694 6.6547 10.1049 6.79545 10.2705C6.93621 10.4361 8.78371 12.9366 11.6115 14.0098C12.2851 14.2647 12.8105 14.4171 13.2189 14.5319C13.8938 14.7207 14.5083 14.6931 14.9948 14.6301C15.5364 14.5595 16.6626 14.0317 16.8975 13.4532C17.1325 12.8749 17.1325 12.3791 17.0622 12.2754C16.9918 12.1716 16.8021 12.1087 16.5218 11.985Z" fill="#BDBDBD"/>
</svg>
