<svg width="23" height="21" viewBox="0 0 23 21" fill="none" xmlns="http://www.w3.org/2000/svg">
<path d="M13.3289 10.3246L10.6567 9.22417C10.4235 9.12862 10.2319 9.23572 10.2319 9.46357V11.5363C10.2319 11.7641 10.4235 11.8712 10.6567 11.7757L13.3277 10.6753C13.5621 10.5787 13.5621 10.4212 13.3289 10.3246ZM11.4217 0.419922C5.11359 0.419922 0 4.93282 0 10.4999C0 16.067 5.11359 20.5799 11.4217 20.5799C17.7298 20.5799 22.8434 16.067 22.8434 10.4999C22.8434 4.93282 17.7298 0.419922 11.4217 0.419922ZM11.4217 14.5949C5.57522 14.5949 5.4729 14.1298 5.4729 10.4999C5.4729 6.87007 5.57522 6.40492 11.4217 6.40492C17.2682 6.40492 17.3705 6.87007 17.3705 10.4999C17.3705 14.1298 17.2682 14.5949 11.4217 14.5949Z" fill="#BDBDBD"/>
</svg>
